 http://www.torrentday.com - Your Key To The Scene.

 
http://www.torrentday.com :  Clean RAR Scene Releases!


Enjoy =)

...................................NFO:....................................

.      *********** ****    ****      ***      ******** *********** ****    *** **********
           *+*     +*+*+* *+*+*+   *+* *+*   *+*    *+*    *+*     *+*+*   *+* *+*        
           +*+     +*+ +*+*+ +*+  +*+   +*+  +*+           +*+     *+*+*+  +*+ +*+        
           +$+     +$+  +*+  +$+ +$++*++$++* *$*           +$+     +$+ +*+ +$+ +$++*++$  
           +$+     +$+       +$+ +$+     +$+ +$+   +$+$    +$+     +$+  +$+$+$ +$+        
           $+$     $+$       $+$ $+$     $+$ $+$    $+$    $+$     $+$   $+$+$ $+$        
       $$$$$$$$$$$ $$$       $$$ $$$     $$$  $$$$$$$$ $$$$$$$$$$$ $$$    $$$$ $$$$$$$$$$     
                                                



                           Another Fine Release Brought to you from - IMAGiNE                   
                                              http://imaginegroup.me/  
    
********************************************************************************************************************                                
                       Percy Jackson Lightning Thief TS XVID - IMAGiNE
********************************************************************************************************************

Ripper ...........: IMAGiNE                                        IMDB Rating.......:6.2/10                             
Video Codec.......: XVID                                         Release Date......:20/02/10
Audio Codec.......:MP3                                           Theatre Date......:12/02/10
Audio Bitrate.....:128                                              Runtime.......:1h 50mn
Subtitles.........:NIL                                                 Language..........:ENGLISH
Resolution...... 640 x 272                                      IMDb URL..........:http://www.imdb.com/title/tt0814255/


[color=yellow]DETAILS:[/color]

Video
ID                               : 0
Format                           : MPEG-4 Visual
Format profile                   : Advanced Simple@L5
Format settings, BVOP            : Yes
Format settings, QPel            : No
Format settings, GMC             : No warppoints
Format settings, Matrix          : Default (H.263)
Muxing mode                      : Packed bitstream
Codec ID                         : XVID
Codec ID/Hint                    : XviD
Duration                         : 1h 50mn
Bit rate                         : 1 647 Kbps
Width                            : 640 pixels
Height                           : 272 pixels
Display aspect ratio             : 2.35:1
Frame rate                       : 25.000 fps
Resolution                       : 8 bits
Colorimetry                      : 4:2:0
Scan type                        : Progressive
Bits/(Pixel*Frame)               : 0.378
Stream size                      : 1.27 GiB (89%)
Writing library                  : XviD 1.2.1 (UTC 2008-12-04)

Audio
ID                               : 0
Format                           : MPEG Audio
Format version                   : Version 1
Format profile                   : Layer 3
Codec ID                         : 55
Codec ID/Hint                    : MP3
Duration                         : 1h 50mn
Bit rate mode                    : Constant
Bit rate                         : 128 Kbps
Channel(s)                       : 2 channels
Sampling rate                    : 44.1 KHz
Resolution                       : 16 bits
Stream size                      : 101 MiB (100%


[color=yellow]NOTES:[/color]

IMAGiNE bringing you another release.....
Here we go with our first Percy release.......sources used are the german xvid by CiNEJUNKiEZ which was 
sweet (thanks).Audio is our own line.
Before i say anything else must say the audio has about 3 parts where there was some static but other than that
it's pretty good (so we think).
Work done......left the bitrate and res on video the same as source file,but we did tweak the colouring and sharpness etc...
Audio as been filtered and then synced to the video.

Now there is a scene after the credits which we have no audio for and we've asked around and looked and can't find any
anywhere so.....

Enjoy

[color=yellow]SCREENS:[/color]

[IMG]http://imagine.takagari.com/PERCY%20JACKSON%20LIGHTNING%20THIEF%20TS/vlcsnap-404235.png[/IMG]
[IMG]http://imagine.takagari.com/PERCY%20JACKSON%20LIGHTNING%20THIEF%20TS/vlcsnap-404542.png[/IMG]
[IMG]http://imagine.takagari.com/PERCY%20JACKSON%20LIGHTNING%20THIEF%20TS/vlcsnap-404713.png[/IMG]
[IMG]http://imagine.takagari.com/PERCY%20JACKSON%20LIGHTNING%20THIEF%20TS/vlcsnap-409694.png[/IMG]
[IMG]http://imagine.takagari.com/PERCY%20JACKSON%20LIGHTNING%20THIEF%20TS/vlcsnap-411613.png[/IMG]


[color=yellow]GREETS:[/color]

FLAWL3SS,ViSiON,DEViSE,FUSiON,STG,SecretMyth,BirdFlu,ELEKTRI4KA
And to all the other p2p grps past and present 

Special thanks to Python-Lair for the server :)
And special thanks to supreme-speeds.com for the ripbox :)

[COLOR=RED]Looking for these,syncers,cammer,silver supplier.....Have anything to offer????......
Contact us imaginegroup@hushmail.com[/COLOR]